<svg xmlns="http://www.w3.org/2000/svg" viewBox="0 0 480 191.03"><path d="M34.32 145.04h6.73L23.71 104h-6.36L0 145.04h6.55l3.61-9.02h20.51l3.65 9.02zm-22.18-13.96l8.21-20.52 8.31 20.52H12.14zm143.71-8.5c0-12.02-8.84-19.28-20.17-19.28-11.33 0-20.17 7.26-20.17 19.28 0 7.44 3.54 14.16 10.25 17.87l-9.37-.71v5.3h16.45v-4.77c-6.55-3.71-11.15-10.09-11.15-17.69 0-7.78 5.32-13.98 13.98-13.98s13.98 6.2 13.98 13.98c0 7.6-4.61 13.98-11.15 17.69v4.77h16.45v-5.3l-9.37.71c6.74-3.72 10.27-10.43 10.27-17.87zm-28.47 45.11l2.12 2.12 4.96-.31c-3.4 2.84-5.9 5.36-8.69 7.22-4.6 3.01-10.25 5.3-17.86 5.3-13.27 0-21.58-6.36-26.54-11.15V80.49h29.37l3.89 3.89h3.54v-3.54l-3.01-3.02 3.01-3.01v-3.54h-3.54l-3.89 3.89H81.38V56.33c7.43-1.33 13.09-7.48 13.09-15.29 0-7.82-5.66-13.98-13.09-15.3V7.07l3.54-3.54V0h-3.54l-3.01 3.01L75.36 0h-3.54v3.54l3.54 3.54v18.66c-7.43 1.33-13.08 7.48-13.08 15.3 0 7.81 5.66 13.97 13.08 15.29v18.84H46l-3.89-3.89h-3.54v3.54l3.01 3.01-3.01 3.02v3.54h3.54l3.89-3.9h29.36v90.38c-4.95 4.78-13.26 11.15-26.53 11.15-7.6 0-13.27-2.3-17.87-5.3-2.77-1.86-5.28-4.38-8.69-7.22l4.98.31 2.12-2.12-2.12-2.12H14.69v12.39l2.3 2.3 2.31-2.3-.3-4.78c3.45 4.09 6.25 6.33 10.2 8.85 5.12 3.18 11.5 5.3 19.63 5.3 8.48 0 18.49-2.54 26.53-9.78v6.42l-3.54 3.54v3.54h3.54l3.01-3.01 3.01 3.01h3.54v-3.54l-3.54-3.54v-6.42c8.06 7.24 18.05 9.78 26.54 9.78 8.13 0 14.5-2.12 19.64-5.3 3.93-2.52 6.75-4.76 10.2-8.85l-.3 4.78 2.3 2.3 2.3-2.3v-12.39H129.5l-2.12 2.12zm-46-137.42c4.8 1.25 8.14 5.45 8.14 10.77 0 5.32-3.34 9.51-8.14 10.76V30.27zM75.36 51.8c-4.81-1.25-8.13-5.45-8.13-10.76 0-5.33 3.33-9.53 8.13-10.77V51.8zM338.38 76.12v-2.23l33.26-40.14-.01 42.06 2.66 2.66 2.67-2.66-.04-52.05-2.66-2.65-2.67 2.65v2.39l-33.2 40.05-.01-42.44-2.65-2.65-2.68 2.65v52.36l2.66 2.66z"/><path d="M335.71 78.86l-.04-.04-2.66-2.66-.01-52.39 2.72-2.73.04.04 2.66 2.66.02 42.33 33.1-39.94-.01-2.35 2.72-2.73.04.04 2.65 2.66.05 52.08-2.72 2.74-.04-.04-2.66-2.66.01-41.95-33.16 40.03.01 2.21-.01.02-2.71 2.68zm.01-57.68l-2.63 2.62.01 52.32 2.61 2.59 2.62-2.61v-2.21l33.36-40.29-.02 42.2 2.61 2.59 2.63-2.62-.05-52.01-2.6-2.58-2.63 2.62.01 2.35-33.3 40.2-.01-42.58-2.61-2.59zM278.01 75.81L278 51.7h30.58l-.03 24.11 2.66 2.66 2.67-2.66h.02l-.02-52.05-2.66-2.65-2.67 2.65.03 22.9H278l.01-22.9-2.65-2.65-2.67 2.65v52.05l2.65 2.66z"/><path d="M311.21 78.55l-.04-.04-2.66-2.66.02-24.1h-30.47l.01 24.08-.01.02-2.71 2.69-.04-.04-2.66-2.66-.01-52.09 2.72-2.73.04.04 2.66 2.66V46.6h30.47l-.03-22.84 2.72-2.73.04.04 2.66 2.66.03 52.14h-.05l-2.69 2.68zm-35.86-57.37l-2.63 2.62.01 52.01 2.61 2.58 2.62-2.61-.01-24.14h30.68v.05l-.03 24.11 2.61 2.58 2.64-2.63-.02-52.01-2.61-2.58-2.63 2.62.04 22.91h-30.68l.01-22.94-2.61-2.57zM225.33 75.81l-.01-20.91 2.92-2.8 26.06 24.87h3.76l.01-3.77-25.84-24.68 24.01-22.53v-3.47l-3.48-.01-27.44 26.01.01-24.76-2.66-2.65-2.67 2.65v52.05l2.66 2.66z"/><path d="M222.66 78.55l-.04-.04-2.66-2.66-.01-52.09 2.72-2.73.04.04 2.66 2.66-.01 24.67 27.35-25.92 3.57-.01v3.52L232.3 48.52l25.81 24.65v3.85h-3.81l-26.06-24.85-2.89 2.76.03 20.9-.01.02-2.71 2.7zm.01-57.37l-2.63 2.62.01 52.01 2.61 2.58 2.62-2.61-.02-20.9 2.98-2.87.04.04 26.06 24.87 3.67-.02.01-3.71-25.86-24.68.03-.04 24-22.53-.01-3.38-3.43-.01-27.5 26.08.02-24.88-2.6-2.57z"/><g><path d="M401.46 27.78h24.13l2.53-2.53-2.53-2.53h-29.45v53.14l2.66 2.66 2.67-2.66z"/><path d="M398.81 78.59l-.04-.04-2.66-2.66-.01-53.23h29.51l2.59 2.58-.03.04-2.52 2.52-24.13.02.02 48.04-2.73 2.73zm-2.61-55.82v53.09l2.61 2.58 2.63-2.62-.03-48.1h24.19l2.45-2.47-2.49-2.5-29.36.02z"/></g><g><path d="M441.37 76.3v-2.23l33.26-40.14-.02 42.06 2.66 2.66 2.67-2.66h.01l-.05-52.05-2.66-2.66-2.67 2.66v2.38l-33.19 40.05-.01-42.43-2.66-2.66-2.67 2.66V76.3l2.66 2.66z"/><path d="M438.7 79.03l-.04-.04-2.66-2.66-.01-52.4 2.72-2.73.04.04 2.65 2.66.02 42.33 33.1-39.94-.01-2.35 2.72-2.73.04.04 2.66 2.66.07 52.08-2.72 2.73-.04-.04-2.66-2.66.01-41.95-33.18 40.03.01 2.22-.01.02-2.71 2.69zm.01-57.68l-2.63 2.62.01 52.32 2.61 2.58 2.61-2.61v-2.21l33.37-40.29-.02 42.21 2.61 2.58 2.63-2.62-.05-52.01-2.61-2.58-2.63 2.62.01 2.35-33.3 40.2-.01-42.58-2.6-2.58z"/></g><g><path d="M354.37 106.39h-3.62v-9.11l-2.84-2.84-2.85 2.84v9.11h-3.62c-32.09 0-39.6 19.66-39.6 33.64 0 13.97 7.51 33.64 39.6 33.64h3.62v11.09l2.84 2.84 2.85-2.84v-11.09h3.62c32.09 0 39.6-19.67 39.6-33.64 0-13.97-7.5-33.64-39.6-33.64zm-13.19 62.12c-26.66 0-33.39-16.05-33.39-28.47s6.73-28.47 33.39-28.47h3.88v56.94h-3.88zm13.45 0h-3.89v-56.94h3.89c26.66 0 33.39 16.05 33.39 28.47s-6.73 28.47-33.39 28.47z"/><path d="M347.9 187.68l-.04-.04-2.84-2.84-.01-11.08h-3.57c-14.35 0-25.07-3.9-31.87-11.6-6.78-7.66-7.78-17.13-7.78-22.09 0-4.97 1-14.44 7.78-22.1 6.8-7.69 17.52-11.59 31.87-11.59h3.57v-9.05l2.9-2.91.04.04 2.84 2.84.01 9.09h3.57c14.35 0 25.07 3.9 31.88 11.59 6.77 7.66 7.77 17.14 7.77 22.1 0 4.96-1 14.44-7.77 22.09-6.81 7.7-17.53 11.6-31.88 11.6h-3.57v11.04l-2.9 2.91zm-6.47-81.23c-14.32 0-25.01 3.89-31.8 11.56-6.74 7.63-7.75 17.08-7.75 22.03 0 4.95 1 14.39 7.75 22.03 6.79 7.67 17.48 11.56 31.8 11.56h3.68v11.14l2.79 2.77 2.81-2.8-.01-11.11h3.68c14.32 0 25.02-3.89 31.8-11.56 6.74-7.64 7.75-17.08 7.75-22.03 0-4.95-1-14.4-7.75-22.03-6.78-7.67-17.48-11.56-31.8-11.56h-3.68v-9.16l-2.79-2.77-2.81 2.8.01 9.12h-3.68zm13.2 62.11h-3.94v-57.04h3.94c12 0 20.99 3.23 26.73 9.59 4.33 4.8 6.71 11.52 6.71 18.93 0 7.4-2.38 14.13-6.71 18.93-5.74 6.36-14.73 9.59-26.73 9.59zm-3.83-.1h3.83c11.97 0 20.94-3.22 26.66-9.56 4.31-4.78 6.68-11.48 6.68-18.86 0-7.38-2.37-14.07-6.68-18.86-5.72-6.34-14.69-9.56-26.66-9.56h-3.83v56.84zm-5.69.1h-3.93c-12 0-20.99-3.23-26.73-9.59-4.33-4.8-6.71-11.53-6.71-18.93 0-7.41 2.38-14.13 6.71-18.93 5.74-6.37 14.73-9.59 26.73-9.59h3.93v57.04zm-3.93-56.94c-11.97 0-20.94 3.22-26.66 9.56-4.31 4.79-6.68 11.48-6.68 18.86 0 7.38 2.37 14.07 6.68 18.86 5.72 6.35 14.69 9.56 26.66 9.56H345v-56.84h-3.82zM283.84 172.78c-8.1 6.73-17.59 9.3-25.01 9.3-17.47 0-38.82-13.33-38.82-38.95 0-21.86 16.56-39.6 38.69-39.6 9.38 0 18.4 3.5 25.42 9.79l.01.01h3.68l.01-3.69h-.01l.01-.01c-2.59-2.47-12.55-11.26-28.99-11.26-24.85 0-44.78 19.67-44.78 44.52 0 24.07 19.16 44.38 45.03 44.38 9.32 0 19.93-2.97 28.73-10.74h.02l-.01-3.87-3.98.12z"/><path d="M259.09 187.31c-12.37 0-23.83-4.68-32.26-13.18-8.27-8.33-12.83-19.43-12.83-31.25 0-12.02 4.65-23.24 13.09-31.61 8.42-8.36 19.69-12.96 31.74-12.96 15.51 0 25.47 7.88 29.03 11.28v.01l.03.03-.02.02-.01 3.75-3.79-.03c-7.02-6.3-16.04-9.77-25.37-9.77-21.66 0-38.63 17.37-38.63 39.55 0 14.78 6.98 23.95 12.85 29.05 7.1 6.17 16.79 9.86 25.92 9.86 8.75 0 17.86-3.39 24.98-9.3l.03-.01 4.04-.13v3.98h-.05c-7.83 6.9-18.05 10.71-28.75 10.71zm-.26-88.89c-12.02 0-23.27 4.59-31.67 12.92-8.41 8.36-13.05 19.56-13.05 31.54 0 11.79 4.55 22.86 12.79 31.18 8.41 8.47 19.85 13.15 32.19 13.15 10.67 0 20.87-3.81 28.7-10.72l-.01-3.77-3.92.12c-7.13 5.92-16.26 9.31-25.03 9.31-9.16 0-18.88-3.69-25.99-9.88-5.87-5.1-12.88-14.3-12.88-29.12 0-22.23 17.01-39.65 38.74-39.65 9.37 0 18.4 3.48 25.44 9.8h3.62l.01-3.59h-.05l.04-.06c-3.59-3.41-13.5-11.23-28.93-11.23z"/><g><path d="M477.11 97.66l-2.85 2.84v4.98l-55.91 67.29V100.5l-2.84-2.84-2.85 2.84v84.27l2.84 2.84 2.85-2.84v-3.58l55.91-67.29v70.87l2.84 2.84 2.85-2.84V100.5z"/><path d="M477.1 187.68l-.04-.04-2.84-2.84-.01-3.62v-67.15l-55.82 67.19.01 3.54-2.9 2.91-.04-.04-2.84-2.84-.01-3.62V100.5l2.9-2.91.04.04 2.84 2.84.01 3.62v68.55l55.82-67.19-.01-4.94 2.9-2.91.04.04 2.84 2.84.01 3.62v80.69l-2.9 2.89zm-2.79-73.93v71.02l2.79 2.77 2.81-2.8-.01-3.54v-80.7l-2.79-2.77-2.81 2.8.01 4.94-56.02 67.44V100.5l-2.79-2.77-2.81 2.8.01 3.54v80.69l2.79 2.77 2.81-2.8-.01-3.54 56.02-67.44z"/></g></g></svg>