<svg xmlns="http://www.w3.org/2000/svg" width="355" height="142" fill="none">
  <g clip-path="url(#a)">
    <g clip-path="url(#b)">
      <g fill="#fff" clip-path="url(#c)">
        <path d="M25.36 107.16h4.972L17.52 76.835h-4.7L0 107.16h4.84l2.667-6.665h15.155zM8.97 96.845l6.067-15.163 6.14 15.163zm106.189-6.281c0-8.882-6.532-14.246-14.904-14.246s-14.903 5.364-14.903 14.246c0 5.498 2.615 10.463 7.573 13.204l-6.923-.524v3.916h12.155v-3.525c-4.84-2.741-8.239-7.455-8.239-13.071 0-5.749 3.931-10.33 10.33-10.33s10.33 4.581 10.33 10.33c0 5.616-3.406 10.33-8.239 13.071v3.525h12.155v-3.916l-6.923.524c4.98-2.748 7.588-7.707 7.588-13.204m-21.037 33.332 1.567 1.567 3.665-.229c-2.512 2.098-4.36 3.96-6.421 5.335-3.4 2.224-7.574 3.916-13.197 3.916-9.806 0-15.946-4.7-19.61-8.239V59.463h21.701l2.874 2.875h2.616v-2.616l-2.224-2.232 2.224-2.224v-2.615h-2.616l-2.874 2.874H60.133V41.61c5.49-.983 9.672-5.527 9.672-11.298 0-5.778-4.182-10.33-9.672-11.305V5.212l2.615-2.615V-.012h-2.615l-2.225 2.224-2.224-2.224H53.07v2.616l2.615 2.616v13.788c-5.49.983-9.665 5.527-9.665 11.305 0 5.771 4.183 10.323 9.665 11.298v13.921H33.99l-2.875-2.874H28.5v2.616l2.224 2.224-2.224 2.231v2.616h2.616l2.874-2.882h21.694v66.783c-3.657 3.532-9.798 8.239-19.603 8.239-5.616 0-9.805-1.7-13.204-3.916-2.047-1.375-3.902-3.237-6.421-5.335l3.68.229 1.566-1.567-1.567-1.566h-9.28v9.155l1.7 1.699 1.706-1.699-.222-3.532c2.55 3.022 4.618 4.677 7.537 6.539 3.783 2.35 8.498 3.916 14.505 3.916 6.266 0 13.662-1.876 19.603-7.226v4.744l-2.615 2.615v2.616h2.615l2.224-2.224 2.225 2.224h2.615v-2.616l-2.615-2.615v-4.744c5.955 5.35 13.337 7.226 19.61 7.226 6.008 0 10.715-1.566 14.513-3.916 2.903-1.862 4.987-3.517 7.536-6.539l-.221 3.532 1.699 1.699 1.7-1.699v-9.155h-9.281zm-33.99-101.54c3.547.923 6.015 4.026 6.015 7.957s-2.468 7.027-6.014 7.95zm-4.448 15.908c-3.554-.924-6.007-4.027-6.007-7.95 0-3.94 2.46-7.043 6.007-7.959zm194.349 17.97v-1.648l24.576-29.66-.007 31.08 1.965 1.965 1.973-1.966-.03-38.46-1.965-1.958-1.973 1.958v1.766L250.04 48.904l-.007-31.36-1.958-1.957-1.981 1.958v38.69l1.966 1.965z"/>
        <path d="m248.06 58.259-.029-.03-1.966-1.965-.007-38.712 2.01-2.017.029.03 1.966 1.965.015 31.278 24.457-29.512-.007-1.736 2.01-2.017.029.03 1.959 1.965.037 38.482-2.01 2.025-.03-.03-1.965-1.965.007-30.998-24.502 29.579.007 1.633-.007.015zm.008-42.62-1.944 1.936.008 38.66 1.928 1.913 1.936-1.928v-1.633l24.65-29.771-.014 31.182 1.928 1.914 1.943-1.936-.037-38.431-1.921-1.906-1.943 1.936.007 1.736-24.605 29.704-.008-31.463zm-42.643 40.366-.007-17.815h22.596l-.023 17.815 1.966 1.966 1.973-1.966h.015l-.015-38.46-1.966-1.958-1.973 1.958.023 16.921h-22.596l.007-16.921-1.958-1.958-1.973 1.958v38.46l1.958 1.966z"/>
        <path d="m229.957 58.033-.03-.03-1.965-1.965.014-17.808h-22.514l.007 17.793-.007.015-2.003 1.988-.029-.03-1.966-1.965-.007-38.49 2.01-2.018.029.03 1.966 1.965v16.907h22.514l-.022-16.877 2.01-2.017.03.03 1.965 1.965.022 38.527h-.037zm-26.498-42.391-1.943 1.936.007 38.43 1.929 1.907 1.936-1.929-.008-17.837h22.67v.037L228.028 56l1.929 1.906 1.95-1.943-.014-38.43-1.929-1.907-1.943 1.936.029 16.928h-22.67l.008-16.95zm-36.96 40.366-.007-15.45 2.157-2.07 19.256 18.377h2.778l.008-2.785-19.094-18.236 17.742-16.648v-2.564l-2.572-.008-20.275 19.22.007-18.296-1.966-1.958-1.972 1.958v38.46l1.965 1.966z"/>
        <path d="m164.526 58.03-.03-.03-1.965-1.966-.008-38.49 2.01-2.017.03.03 1.965 1.965-.007 18.23 20.209-19.153 2.638-.008v2.601L171.649 35.84l19.071 18.214V56.9h-2.815l-19.256-18.362-2.135 2.04.022 15.443-.008.014zm.007-42.392-1.943 1.936.007 38.43 1.929 1.907 1.936-1.928-.015-15.443 2.202-2.121.03.03 19.256 18.376 2.711-.015.008-2.741-19.108-18.236.022-.03 17.734-16.648-.008-2.497-2.534-.008-20.32 19.271.014-18.384zm132.11 4.874h17.83l1.869-1.87-1.869-1.869h-21.761V56.04l1.965 1.966 1.973-1.966z"/>
        <path d="m294.684 58.058-.029-.03-1.966-1.965-.007-39.332h21.805l1.914 1.906-.022.03-1.863 1.861-17.829.015.014 35.498zm-1.928-41.246V56.04l1.928 1.906 1.943-1.936-.022-35.542h17.875l1.81-1.825-1.84-1.847zm33.378 39.562v-1.648l24.576-29.66-.015 31.079 1.966 1.965 1.972-1.965h.008l-.037-38.46-1.966-1.966-1.972 1.965v1.759l-24.525 29.593-.007-31.352-1.966-1.965-1.973 1.965v38.69l1.966 1.965z"/>
        <path d="m324.161 58.384-.03-.03-1.965-1.965-.008-38.72 2.01-2.017.03.03 1.958 1.965.015 31.279 24.457-29.513-.007-1.736 2.01-2.017.029.03 1.966 1.965.052 38.482-2.01 2.017-.03-.029-1.965-1.966.007-30.997-24.517 29.579.008 1.64-.008.015zm.007-42.62-1.943 1.935.007 38.66 1.929 1.906 1.928-1.928v-1.633l24.658-29.77-.015 31.189 1.928 1.906 1.944-1.936-.037-38.43-1.929-1.907-1.943 1.936.007 1.736-24.605 29.704-.008-31.462zm-62.321 62.839h-2.675v-6.731l-2.098-2.099-2.106 2.099v6.731h-2.675c-23.712 0-29.261 14.527-29.261 24.857 0 10.323 5.549 24.857 29.261 24.857h2.675v8.195l2.098 2.098 2.106-2.098v-8.195h2.675c23.712 0 29.261-14.534 29.261-24.857s-5.542-24.857-29.261-24.857m-9.746 45.902c-19.699 0-24.672-11.86-24.672-21.037 0-9.178 4.973-21.037 24.672-21.037h2.867v42.074zm9.938 0h-2.874V82.431h2.874c19.7 0 24.673 11.86 24.673 21.037s-4.973 21.037-24.673 21.037"/>
        <path d="m257.067 138.667-.029-.03-2.099-2.098-.007-8.187h-2.638c-10.603 0-18.525-2.882-23.549-8.572-5.01-5.66-5.749-12.657-5.749-16.322 0-3.672.739-10.67 5.749-16.33 5.024-5.682 12.946-8.564 23.549-8.564h2.638v-6.687l2.143-2.15.029.03 2.099 2.098.007 6.716h2.638c10.603 0 18.525 2.882 23.557 8.564 5.002 5.66 5.741 12.665 5.741 16.33s-.739 10.67-5.741 16.323c-5.032 5.689-12.954 8.571-23.557 8.571h-2.638v8.158zm-4.78-60.022c-10.582 0-18.481 2.875-23.498 8.542-4.98 5.638-5.726 12.62-5.726 16.278s.739 10.633 5.726 16.278c5.017 5.668 12.916 8.542 23.498 8.542h2.719v8.232l2.061 2.047 2.077-2.069-.008-8.21h2.719c10.582 0 18.488-2.874 23.498-8.542 4.98-5.645 5.726-12.62 5.726-16.278s-.739-10.64-5.726-16.278c-5.01-5.667-12.916-8.542-23.498-8.542h-2.719v-6.768l-2.061-2.047-2.077 2.069.008 6.739h-2.719zm9.753 45.894h-2.911V82.391h2.911c8.867 0 15.51 2.387 19.751 7.087 3.2 3.546 4.958 8.512 4.958 13.987 0 5.468-1.758 10.441-4.958 13.988-4.241 4.699-10.884 7.086-19.751 7.086m-2.83-.074h2.83c8.845 0 15.473-2.379 19.7-7.064 3.184-3.532 4.935-8.483 4.935-13.936s-1.751-10.396-4.935-13.936c-4.227-4.684-10.855-7.064-19.7-7.064h-2.83zm-4.204.074h-2.904c-8.867 0-15.51-2.387-19.751-7.086-3.2-3.547-4.958-8.52-4.958-13.988 0-5.475 1.758-10.44 4.958-13.987 4.241-4.707 10.884-7.087 19.751-7.087h2.904zm-2.904-42.074c-8.845 0-15.473 2.38-19.7 7.064-3.184 3.54-4.935 8.483-4.935 13.936s1.751 10.397 4.935 13.936c4.227 4.692 10.855 7.064 19.7 7.064h2.822v-42zm-42.369 45.192c-5.986 4.973-12.998 6.872-18.481 6.872-12.908 0-28.684-9.85-28.684-28.781 0-16.152 12.236-29.26 28.588-29.26 6.931 0 13.596 2.586 18.784 7.234l.007.007h2.719l.008-2.727h-.008l.008-.007c-1.914-1.825-9.274-8.32-21.422-8.32-18.361 0-33.088 14.534-33.088 32.896 0 17.786 14.158 32.793 33.273 32.793 6.887 0 14.727-2.195 21.229-7.936h.015l-.007-2.859z"/>
        <path d="M191.444 138.396c-9.14 0-17.608-3.458-23.837-9.739-6.111-6.155-9.48-14.357-9.48-23.091 0-8.882 3.436-17.172 9.672-23.357 6.222-6.177 14.549-9.576 23.453-9.576 11.461 0 18.82 5.822 21.451 8.335v.007l.022.022-.015.015-.007 2.771-2.801-.022c-5.187-4.655-11.852-7.22-18.746-7.22-16.005 0-28.544 12.835-28.544 29.225 0 10.921 5.158 17.697 9.495 21.465 5.246 4.559 12.406 7.286 19.153 7.286 6.465 0 13.197-2.505 18.458-6.872l.022-.008 2.985-.096v2.941h-.037c-5.786 5.099-13.337 7.914-21.244 7.914m-.192-65.682c-8.881 0-17.194 3.392-23.401 9.547-6.214 6.177-9.643 14.453-9.643 23.305 0 8.712 3.362 16.892 9.451 23.039 6.214 6.259 14.667 9.717 23.785 9.717 7.885 0 15.422-2.815 21.207-7.921l-.007-2.786-2.897.089c-5.268 4.374-12.014 6.879-18.495 6.879-6.768 0-13.95-2.726-19.204-7.3-4.337-3.769-9.517-10.567-9.517-21.517 0-16.426 12.569-29.298 28.625-29.298 6.924 0 13.596 2.571 18.798 7.241h2.675l.007-2.653h-.037l.03-.044c-2.653-2.52-9.975-8.298-21.377-8.298m161.289-.566-2.106 2.099v3.68l-41.313 49.721V74.247l-2.098-2.099-2.106 2.099v62.268l2.098 2.098 2.106-2.098v-2.645l41.313-49.722v52.367l2.098 2.098 2.106-2.098V74.247z"/>
        <path d="m352.534 138.666-.029-.029-2.099-2.099-.007-2.675V84.245l-41.246 49.648.007 2.616-2.143 2.15-.029-.03-2.099-2.098-.007-2.675V74.248l2.143-2.15.029.03 2.099 2.098.007 2.675v50.652l41.246-49.647-.007-3.65 2.143-2.151.029.03 2.099 2.098.007 2.675v59.623zm-2.061-54.627v52.477l2.061 2.047 2.077-2.069-.008-2.616v-59.63l-2.061-2.047-2.077 2.07.008 3.65-41.394 49.831V74.248l-2.062-2.047-2.076 2.07.007 2.615v59.623l2.062 2.046 2.076-2.069-.007-2.615z"/>
      </g>
    </g>
  </g>
  <defs>
    <clipPath id="a">
      <path fill="#fff" d="M0 0h354.677v141.133H0z"/>
    </clipPath>
    <clipPath id="b">
      <path fill="#fff" d="M0 0h354.677v141.133H0z"/>
    </clipPath>
    <clipPath id="c">
      <path fill="#fff" d="M0-.012h354.677v141.154H0z"/>
    </clipPath>
  </defs>
</svg>