<svg xmlns="http://www.w3.org/2000/svg" width="229" height="42" fill="none">
  <path fill="#1d1d1b" d="M9.796 28.824h1.207L7.89 21.45H6.745l-3.114 7.373h1.18l.636-1.59h3.677zM5.81 26.327l1.453-3.696 1.516 3.696zm25.795-1.516a3.377 3.377 0 0 0-3.632-3.469 3.38 3.38 0 0 0-3.632 3.469 3.58 3.58 0 0 0 1.816 3.205l-1.643-.146v.954h2.95v-.863a3.69 3.69 0 0 1-1.997-3.169 2.506 2.506 0 1 1 5.012 0 3.69 3.69 0 0 1-1.998 3.17v.862h2.951v-.954l-1.68.127a3.58 3.58 0 0 0 1.816-3.205m-5.111 8.09.38.382.909-.055q-.738.685-1.544 1.29a5.6 5.6 0 0 1-3.205.907 6.63 6.63 0 0 1-4.757-1.997V17.247h5.266l.699.7h.635v-.636l-.544-.536.544-.535v-.636h-.635l-.7.7H18.24v-3.406a2.779 2.779 0 0 0 0-5.493v-3.35l.635-.626v-.636h-.635l-.545.536-.536-.536h-.635v.636l.635.626v3.35a2.779 2.779 0 0 0 0 5.493v3.387h-5.275l-.699-.7h-.626v.636l.535.536-.535.536v.635h.626l.7-.699h5.274v16.225a6.64 6.64 0 0 1-4.766 1.998 5.6 5.6 0 0 1-3.206-.908 19 19 0 0 1-1.552-1.29l.908.055.381-.381-.381-.382h-2.27v2.225l.409.408.408-.408v-.908a7.3 7.3 0 0 0 1.816 1.589 6.5 6.5 0 0 0 3.523.953 7.1 7.1 0 0 0 4.766-1.752v1.153l-.635.635v.636h.636l.535-.545.545.545h.636v-.636l-.636-.635v-1.153a7.1 7.1 0 0 0 4.758 1.752 6.5 6.5 0 0 0 3.522-.953 7.3 7.3 0 0 0 1.816-1.59l-.054.909.408.408.418-.408V32.5h-2.27zM18.24 8.222a1.94 1.94 0 0 1 1.452 1.934 1.925 1.925 0 0 1-1.452 1.925zm-1.08 3.86a2.006 2.006 0 0 1 0-3.86z"/>
  <path fill="#000" d="m110.353 10.613-.672.663v1.308L96.489 28.5V11.276l-.663-.663-.663.663-.009 20.365.663.663.663-.663v-1.307L109.7 14.38l-.01 17.142.663.663.672-.663-.009-20.247zm-23.761.102-.663.663.01 9.76H73.727l.009-9.76-.663-.663-.663.663v20.265l.654.663.672-.663-.01-9.288H85.94l-.019 9.288.663.663.681-.672-.009-20.256zM66.5 12.059v-.817h-.835L53.88 22.292V11.404l-.663-.663-.662.663v20.238l.663.663.662-.663v-7.88l1.435-1.381 10.287 9.724h.935l.01-.935-10.224-9.67zm52.434-1.099v20.684l.662.663.663-.663-.009-19.457h9.297l.609-.609-.609-.617zm30.225-.327-.663.663-.009 1.362-13.184 15.907v-17.27l-.662-.662-.663.663-.009 20.347.663.662.662-.662v-1.244l13.22-15.944-.009 17.16.663.663.663-.663-.01-20.32zM196.9 27.846h-.908V14.6h.908c6.201 0 7.772 3.732 7.772 6.62 0 2.886-1.571 6.627-7.772 6.627m-3.133 0c-6.201 0-7.772-3.732-7.772-6.628s1.571-6.619 7.772-6.619h.908v13.247zm3.069-14.454h-.844v-2.116l-.681-.663-.672.663v2.116h-.845c-7.463 0-9.206 4.54-9.206 7.826 0 3.287 1.743 7.836 9.206 7.836h.845v2.578l.663.663.662-.663v-2.578h.845c7.472 0 9.215-4.54 9.215-7.836s-1.716-7.826-9.188-7.826m-16.389 15.425a9.3 9.3 0 0 1-5.82 2.16 8.98 8.98 0 0 1-8.371-5.6 9 9 0 0 1-.663-3.479 9 9 0 0 1 8.98-9.17 8.83 8.83 0 0 1 5.911 2.28h.862V14.1a9.78 9.78 0 0 0-6.746-2.624 10.35 10.35 0 0 0-10.623 10.379 10.35 10.35 0 0 0 10.687 10.313 10.07 10.07 0 0 0 6.682-2.496v-.909zM225.4 11.36l-.663.662v1.162l-13.011 15.662V12.022l-.663-.663-.663.663v19.612l.663.663.663-.663v-.835l13.011-15.663v16.498l.663.663.662-.663V12.022z"/>
</svg>